<svg xmlns="http://www.w3.org/2000/svg" version="1.1" xmlns:xlink="http://www.w3.org/1999/xlink" width="512" height="512" x="0" y="0" viewBox="0 0 32 32" style="enable-background:new 0 0 512 512" xml:space="preserve" class=""><g><path d="M8.3 20h2.4l-1.2-2z" fill="#000000" opacity="1" data-original="#000000" class=""></path><path d="M27 4H17V2c0-.6-.4-1-1-1s-1 .4-1 1v2H5C3.3 4 2 5.3 2 7v18c0 1.7 1.3 3 3 3h10v2c0 .6.4 1 1 1s1-.4 1-1v-2h10c1.7 0 3-1.3 3-3V7c0-1.7-1.3-3-3-3zM12.8 7c.5 0 1 .5 1 1 0 .6-.5 1-1 1s-1-.5-1-1c0-.6.5-1 1-1zM9.6 7c.5 0 1 .5 1 1 0 .6-.5 1-1 1-.6 0-1-.5-1-1 0-.6.5-1 1-1zM6.3 7c.5 0 1 .5 1 1 0 .6-.5 1-1 1s-1-.5-1-1c0-.6.5-1 1-1zm7.2 15.9c-.772.509-1.2-.1-1.4-.4l-.3-.5H7.2l-.3.5c-.3.5-.918.639-1.4.4-.522-.259-.6-.9-.4-1.4l3.5-6c.4-.6 1.4-.6 1.7 0l3.5 6c.3.5.2 1.1-.3 1.4zM17 26c0 .6-.4 1-1 1s-1-.4-1-1V6c0-.6.4-1 1-1s1 .4 1 1zm6.5-3H20c-.6 0-1-.4-1-1v-6c0-.6.4-1 1-1h2.5c1.4 0 2.5 1.1 2.5 2.5 0 .3-.1.6-.2.9.7.4 1.2 1.2 1.2 2.1 0 1.4-1.1 2.5-2.5 2.5z" fill="#000000" opacity="1" data-original="#000000" class=""></path><path d="M23.5 20H21v1h2.5c.3 0 .5-.2.5-.5s-.2-.5-.5-.5zM23 17.5c0-.3-.2-.5-.5-.5H21v1h1.5c.3 0 .5-.2.5-.5z" fill="#000000" opacity="1" data-original="#000000" class=""></path></g></svg>